# xmcd
#
# Track frame offsets:
#	150
#	14931
#	30492
#	48989
#	65048
#	96962
#	110656
#	134754
#	153909
#	170358
#
# Disc length: 2492 seconds
#
# Revision: 1
# Processed by: cddbd v1.5.2PL0 Copyright (c) Steve Scherf et al.
# Submitted via: audiograbber 1.83.01
#
DISCID=8d09ba0a
DTITLE=Karen Lafferty - Sweet Communion
DYEAR=1977
DGENRE=Gospel
TTITLE0=Like a Morning Star
TTITLE1=Peace Tru the Day
TTITLE2=The Letter
TTITLE3=Moonless Night
TTITLE4=Father of Lights
TTITLE5=Nothing Can Separate
TTITLE6=Sweet Communion
TTITLE7=Beautiful Day
TTITLE8=You Sure Have Been Good to Me
TTITLE9=Kingdom Come
EXTD=
EXTT0=
EXTT1=
EXTT2=
EXTT3=
EXTT4=
EXTT5=
EXTT6=
EXTT7=
EXTT8=
EXTT9=
PLAYORDER=
